<?xml version="1.0" standalone="no"?>
<!DOCTYPE svg PUBLIC "-//W3C//DTD SVG 20010904//EN"
 "http://www.w3.org/TR/2001/REC-SVG-20010904/DTD/svg10.dtd">
<svg version="1.0" xmlns="http://www.w3.org/2000/svg"
 width="1718.000000pt" height="1718.000000pt" viewBox="0 0 1718.000000 1718.000000"
 preserveAspectRatio="xMidYMid meet">
<metadata>
Created by potrace 1.11, written by Peter Selinger 2001-2013
</metadata>
<g transform="translate(0.000000,1718.000000) scale(0.100000,-0.100000)"
fill="#000000" stroke="none">
<path d="M693 11722 l-652 -2 4 -28 c12 -64 37 -209 41 -237 3 -16 14 -77 24
-135 11 -58 22 -121 25 -140 17 -106 57 -331 65 -370 5 -25 12 -63 15 -84 3
-21 7 -48 10 -60 3 -12 7 -34 10 -51 4 -27 38 -222 49 -285 3 -14 14 -79 26
-145 11 -66 23 -131 26 -145 2 -14 7 -41 9 -60 3 -19 10 -55 15 -80 9 -47 19
-103 27 -155 2 -16 13 -75 23 -130 10 -55 21 -118 24 -140 4 -22 22 -130 42
-240 19 -110 37 -211 40 -225 2 -14 15 -86 28 -160 14 -74 27 -153 31 -175 3
-23 7 -52 10 -65 3 -14 8 -41 11 -60 4 -19 8 -44 10 -55 2 -11 15 -85 29 -165
14 -80 27 -157 30 -170 7 -34 54 -306 61 -349 3 -18 8 -43 10 -55 2 -11 6 -37
10 -56 3 -19 9 -55 14 -80 5 -25 12 -61 15 -80 2 -19 7 -46 10 -60 2 -14 20
-117 40 -230 20 -113 38 -216 40 -230 9 -47 44 -245 50 -280 3 -19 15 -84 25
-145 10 -60 28 -162 40 -225 21 -119 23 -131 40 -228 9 -54 13 -80 25 -147 3
-16 10 -52 15 -80 5 -27 13 -68 16 -90 3 -22 15 -87 25 -145 11 -58 22 -122
25 -143 3 -21 7 -46 9 -55 2 -9 4 -20 4 -25 1 -4 430 -7 955 -7 l955 1 5 27
c3 15 8 41 10 57 3 17 17 95 31 175 14 80 28 159 30 175 3 17 7 43 11 58 3 16
7 38 8 50 2 12 6 36 9 52 4 17 9 46 12 65 3 19 14 82 25 140 10 58 33 188 50
290 18 102 34 194 36 205 2 11 6 34 9 50 3 17 7 41 10 55 3 14 7 41 10 60 3
19 10 58 15 85 5 28 12 66 14 85 3 19 8 47 11 63 16 86 56 312 61 352 3 17 11
64 19 105 8 41 17 89 19 105 7 45 35 206 41 235 6 32 23 125 30 170 3 19 8 42
10 50 2 8 7 40 10 70 4 30 8 57 10 60 2 3 6 26 10 50 3 25 10 63 15 85 5 22
12 63 16 90 3 28 8 52 9 55 2 3 6 26 10 50 3 25 22 133 41 240 19 107 37 206
39 220 13 90 39 210 45 210 4 0 12 -30 18 -67 6 -38 24 -144 41 -238 35 -198
33 -189 71 -410 16 -93 34 -195 40 -225 6 -30 12 -68 15 -85 19 -117 47 -270
49 -274 2 -3 7 -28 10 -56 4 -27 9 -59 11 -70 4 -18 7 -39 20 -120 3 -20 11
-60 19 -101 2 -12 7 -37 10 -55 3 -19 17 -99 31 -179 14 -80 39 -224 56 -320
16 -96 32 -186 35 -200 2 -14 7 -41 10 -60 3 -19 21 -120 39 -225 19 -104 37
-207 41 -229 3 -21 8 -48 10 -60 2 -11 8 -46 13 -76 9 -52 37 -207 46 -260 12
-66 16 -85 39 -220 2 -14 11 -63 19 -110 23 -125 29 -163 30 -183 1 -16 53
-17 957 -17 l956 1 13 72 c7 40 14 79 16 87 1 8 6 33 10 55 4 22 8 51 10 65 2
14 11 66 20 115 23 120 22 114 30 165 4 25 9 54 11 65 10 54 26 139 29 163 3
15 7 43 10 62 4 19 8 46 10 60 15 84 70 392 86 480 11 58 22 121 25 140 3 19
12 71 20 115 8 44 17 96 20 115 2 19 9 55 14 80 5 25 19 101 30 170 12 69 23
136 26 150 2 14 7 40 10 59 3 18 8 43 10 55 2 11 18 100 34 196 17 96 33 182
35 190 2 8 7 33 10 55 3 23 7 52 10 65 3 14 9 50 15 80 5 30 12 69 15 85 3 17
10 59 16 95 5 36 14 83 19 105 5 22 11 58 15 80 6 43 46 270 70 400 8 44 26
148 40 230 27 157 32 181 40 173 4 -4 23 -101 41 -213 2 -16 11 -64 19 -105 8
-41 16 -91 19 -110 3 -19 10 -57 15 -85 5 -27 12 -70 16 -95 3 -25 8 -52 10
-60 2 -8 7 -28 9 -45 3 -16 19 -104 35 -195 17 -91 33 -181 36 -200 11 -68 26
-155 31 -180 3 -14 6 -34 8 -45 2 -11 6 -33 9 -50 3 -16 13 -73 22 -125 9 -52
22 -129 30 -170 15 -79 19 -97 35 -195 5 -33 12 -71 15 -85 3 -14 14 -79 25
-145 11 -66 25 -140 30 -165 5 -25 12 -61 16 -80 3 -19 10 -60 15 -90 6 -30
12 -66 14 -80 2 -14 10 -63 19 -110 9 -47 18 -98 21 -115 2 -16 34 -196 70
-400 37 -203 70 -392 75 -420 5 -27 11 -66 15 -85 3 -19 10 -60 16 -90 5 -30
16 -93 24 -140 25 -143 20 -136 97 -147 21 -2 673 -5 1450 -6 l1413 -2 32 125
c18 69 35 134 37 145 3 11 26 101 51 200 26 99 48 187 50 195 2 8 15 58 28
110 31 117 158 609 162 630 3 12 39 152 60 233 3 9 7 25 9 35 2 10 25 97 50
193 88 338 138 534 146 569 10 44 93 365 126 490 14 52 28 103 30 113 2 9 6
25 8 35 2 9 34 134 71 277 37 143 68 266 70 275 2 8 15 58 28 110 14 52 56
212 92 355 36 143 91 357 122 475 30 118 57 224 59 234 2 10 8 33 13 50 8 23
100 382 126 486 2 8 26 103 53 210 28 107 78 303 112 435 34 131 64 243 66
247 6 10 38 10 -654 10 -333 1 -587 -3 -591 -8 -5 -5 -34 -110 -65 -234 -32
-124 -82 -322 -112 -440 -31 -118 -57 -222 -59 -230 -2 -8 -27 -105 -55 -215
-28 -110 -53 -207 -55 -215 -3 -17 -309 -1208 -356 -1390 -17 -63 -32 -123
-34 -134 -2 -10 -15 -62 -29 -115 -65 -252 -158 -618 -161 -631 -2 -8 -17 -67
-34 -130 -16 -63 -61 -239 -100 -390 -89 -351 -157 -615 -231 -905 -138 -541
-202 -791 -205 -805 -21 -88 -89 -346 -91 -349 -8 -9 -13 8 -28 94 -9 50 -18
101 -21 115 -3 14 -14 75 -25 135 -10 61 -22 124 -25 140 -3 17 -19 104 -35
195 -17 91 -32 176 -35 190 -3 14 -14 75 -25 135 -11 61 -27 148 -35 195 -9
47 -18 94 -19 105 -4 24 -22 120 -35 195 -6 30 -13 69 -16 85 -3 17 -7 39 -10
50 -2 11 -7 43 -11 70 -3 28 -8 53 -10 56 -2 4 -6 24 -9 45 -4 22 -13 75 -21
119 -21 109 -22 117 -34 183 -6 31 -12 68 -15 82 -3 14 -8 41 -11 60 -3 19 -7
42 -9 50 -3 8 -7 33 -10 55 -4 22 -12 72 -20 110 -8 39 -17 93 -21 120 -3 28
-8 53 -10 56 -1 3 -12 57 -23 120 -11 63 -23 126 -26 142 -2 15 -9 53 -15 85
-6 31 -12 68 -15 82 -11 56 -27 147 -32 175 -2 17 -10 62 -18 100 -8 39 -34
185 -59 325 -25 140 -48 266 -51 280 -5 26 -21 114 -30 163 -3 15 -7 39 -10
55 -3 15 -14 77 -25 137 -18 103 -27 153 -65 360 -8 44 -17 94 -20 110 -3 17
-7 41 -10 55 -4 22 -14 76 -30 165 -3 17 -7 41 -10 55 -11 54 -13 67 -20 110
-4 25 -9 54 -11 65 -8 40 -36 190 -39 205 -1 8 -12 71 -24 140 -12 69 -25 136
-28 150 -8 32 -10 46 -18 96 -10 66 -15 97 -21 124 -3 14 -8 36 -10 50 -3 14
-9 48 -14 75 -5 28 -12 64 -15 80 -2 17 -7 42 -11 58 l-6 27 -1254 0 -1254 0
-1 -22 c0 -13 -2 -32 -3 -43 -2 -11 -6 -51 -10 -90 -4 -38 -9 -88 -12 -110 -2
-22 -6 -60 -8 -85 -12 -131 -18 -187 -21 -210 -5 -40 -14 -120 -20 -190 -4
-36 -8 -78 -10 -95 -2 -16 -7 -61 -10 -98 -4 -38 -8 -76 -10 -85 -1 -9 -6 -53
-9 -97 -10 -109 -16 -165 -21 -195 -2 -14 -7 -59 -10 -100 -3 -41 -7 -86 -10
-100 -2 -14 -7 -59 -11 -100 -3 -41 -8 -83 -10 -94 -2 -10 -6 -53 -9 -95 -4
-42 -8 -87 -10 -101 -3 -13 -7 -58 -11 -99 -3 -41 -7 -82 -9 -91 -2 -9 -6 -56
-10 -106 -4 -49 -9 -92 -11 -95 -2 -3 -6 -37 -9 -75 -3 -38 -8 -82 -9 -99 -2
-16 -7 -64 -11 -105 -4 -41 -8 -86 -10 -100 -2 -14 -6 -56 -9 -95 -4 -38 -9
-83 -11 -100 -2 -16 -6 -57 -10 -90 -3 -33 -8 -78 -10 -100 -11 -93 -14 -123
-19 -180 -8 -80 -17 -161 -22 -210 -3 -22 -7 -65 -9 -95 -3 -30 -7 -68 -10
-85 -2 -16 -7 -66 -11 -110 -3 -44 -8 -88 -10 -99 -2 -10 -6 -51 -10 -90 -10
-110 -19 -107 -29 9 -3 44 -8 94 -10 110 -2 17 -7 66 -10 110 -4 44 -8 94 -10
110 -5 39 -13 122 -20 210 -3 39 -8 86 -10 105 -2 19 -6 67 -10 105 -3 39 -8
88 -10 110 -5 45 -14 130 -19 196 -12 129 -17 187 -21 214 -2 17 -7 62 -10
100 -3 39 -8 94 -11 123 -3 30 -7 75 -9 100 -4 44 -11 121 -20 202 -2 19 -6
67 -9 105 -4 39 -9 88 -11 110 -2 22 -7 72 -11 110 -3 39 -7 81 -9 95 -1 14
-6 61 -9 105 -4 44 -9 94 -11 110 -2 17 -7 66 -11 110 -4 44 -8 94 -9 110 -4
44 -15 154 -20 205 -2 25 -7 74 -10 110 -4 36 -8 83 -10 105 -11 106 -17 174
-21 215 -8 103 -15 167 -19 200 -2 19 -7 69 -10 110 -3 41 -8 86 -10 100 -2
14 -7 61 -10 105 -3 44 -8 88 -11 98 -5 16 -38 17 -512 18 -279 0 -834 2
-1234 4 l-728 5 -1 -33 c0 -17 -2 -41 -4 -52 -2 -11 -7 -55 -10 -98 -4 -44 -8
-86 -10 -95 -1 -10 -6 -55 -10 -101 -4 -47 -8 -93 -10 -103 -2 -10 -7 -53 -10
-96 -3 -42 -8 -88 -10 -102 -2 -14 -7 -59 -11 -100 -3 -41 -7 -86 -9 -100 -11
-110 -17 -170 -20 -200 -2 -19 -7 -64 -10 -100 -3 -36 -8 -82 -11 -103 -2 -20
-6 -65 -10 -100 -3 -34 -7 -75 -8 -92 -2 -16 -7 -64 -10 -105 -4 -41 -9 -86
-11 -100 -2 -14 -7 -59 -11 -100 -3 -41 -8 -88 -10 -105 -1 -16 -6 -61 -9
-100 -3 -38 -8 -81 -10 -95 -2 -14 -6 -59 -10 -100 -4 -41 -8 -86 -10 -100 -2
-14 -7 -54 -10 -90 -3 -36 -7 -78 -9 -95 -2 -16 -7 -64 -10 -105 -4 -41 -9
-88 -11 -105 -3 -16 -7 -64 -10 -105 -3 -41 -8 -86 -10 -100 -2 -14 -7 -54
-11 -90 -3 -36 -7 -76 -9 -90 -3 -33 -17 -178 -20 -210 -3 -28 -14 -136 -20
-190 -2 -19 -9 -89 -15 -155 -6 -66 -13 -131 -15 -145 -2 -14 -7 -61 -11 -105
-4 -44 -8 -89 -10 -100 -1 -11 -3 -27 -3 -35 -2 -24 -18 6 -35 65 -28 95 -41
228 -51 520 -10 276 -18 415 -30 495 -2 14 -6 54 -10 90 -3 36 -8 88 -11 115
-2 28 -7 73 -10 100 -2 28 -7 70 -10 95 -2 25 -7 72 -9 105 -3 33 -7 76 -10
95 -2 19 -7 64 -10 100 -4 36 -8 79 -10 95 -2 17 -6 62 -10 100 -3 39 -8 84
-10 100 -2 17 -7 66 -11 110 -3 44 -8 87 -9 96 -2 8 -6 53 -10 100 -4 46 -8
91 -10 99 -2 9 -6 56 -10 106 -4 49 -9 97 -10 106 -2 9 -6 48 -10 85 -3 37 -8
82 -10 98 -2 17 -7 66 -11 110 -3 44 -8 88 -9 97 -2 9 -7 57 -10 105 -4 48 -8
95 -10 103 -2 8 -6 49 -10 90 -3 41 -8 91 -10 110 -4 34 -10 87 -20 193 -3 28
-7 72 -10 97 -3 25 -7 74 -10 110 -3 36 -8 72 -11 81 -8 26 -101 41 -241 37
-71 -2 -422 -4 -780 -6z"/>
<path d="M12727 10177 c1 -358 2 -668 2 -688 l1 -36 93 -33 c50 -17 162 -57
247 -87 85 -31 216 -77 290 -103 74 -26 250 -88 390 -138 140 -49 397 -140
570 -202 173 -61 344 -122 380 -135 220 -81 692 -245 702 -245 26 0 -11 -19
-97 -49 -49 -18 -99 -36 -110 -41 -11 -5 -123 -46 -250 -91 -126 -44 -279 -99
-340 -121 -60 -22 -128 -46 -150 -54 -22 -7 -85 -29 -140 -50 -102 -37 -242
-87 -465 -167 -171 -61 -624 -224 -860 -309 -107 -39 -210 -75 -227 -80 -28
-8 -33 -14 -34 -41 -3 -133 -1 -1359 3 -1362 4 -4 464 168 523 195 18 8 557
214 1025 392 102 38 199 76 215 83 17 7 73 29 125 49 52 19 142 54 200 76 58
23 110 43 115 44 15 4 47 17 70 27 19 8 388 149 940 359 149 56 284 108 300
115 17 8 84 34 150 58 66 25 185 71 265 102 80 31 224 85 320 122 96 36 178
68 182 72 3 3 9 296 12 651 l5 646 -32 13 c-18 7 -77 30 -132 51 -115 43
-1614 617 -1810 692 -158 60 -251 96 -370 141 -200 75 -521 198 -540 207 -11
4 -58 23 -105 40 -99 37 -556 210 -647 246 -35 13 -91 35 -125 48 -35 13 -110
42 -168 65 -309 119 -502 191 -513 191 -9 0 -12 -148 -10 -653z"/>
</g>
</svg>
